<?xml version="1.0" encoding="utf-8"?>
<!-- Generator: Adobe Illustrator 18.1.1, SVG Export Plug-In . SVG Version: 6.00 Build 0)  -->
<svg version="1.1" id="Layer_1" xmlns="http://www.w3.org/2000/svg" xmlns:xlink="http://www.w3.org/1999/xlink" x="0px" y="0px"
	 viewBox="0 0 50 50" enable-background="new 0 0 50 50" xml:space="preserve">
<g opacity="0.5">
	<path fill="#FFFFFF" d="M49,39c0,5.5-4.5,10-10,10H11C5.5,49,1,44.5,1,39V11C1,5.5,5.5,1,11,1h28c5.5,0,10,4.5,10,10V39z"/>
</g>
<g>
	<path fill="#324164" d="M39,3c4.4,0,8,3.6,8,8v28c0,4.4-3.6,8-8,8H11c-4.4,0-8-3.6-8-8V11c0-4.4,3.6-8,8-8H39 M39,1H11
		C5.5,1,1,5.5,1,11v28c0,5.5,4.5,10,10,10h28c5.5,0,10-4.5,10-10V11C49,5.5,44.5,1,39,1L39,1z"/>
</g>
<polygon fill="#5CB85C" points="14.9,11.2 11.3,14.9 26.9,16.1 10,34.9 10,40 14.5,40 33.3,23.1 34.5,38.1 35.1,38.1 38.7,34.5 
	40,10 "/>
</svg>
